<svg xmlns="http://www.w3.org/2000/svg" version="1.1" xmlns:xlink="http://www.w3.org/1999/xlink" xmlns:svgjs="http://svgjs.dev/svgjs" width="1500" height="390" viewBox="0 0 1500 390"><g transform="matrix(1,0,0,1,-0.9090909090909918,-0.3237666146555682)"><svg viewBox="0 0 396 103" data-background-color="#ffffff" preserveAspectRatio="xMidYMid meet" height="390" width="1500" xmlns="http://www.w3.org/2000/svg" xmlns:xlink="http://www.w3.org/1999/xlink"><g id="tight-bounds" transform="matrix(1,0,0,1,0.2400000000000091,0.08550759310134026)"><svg viewBox="0 0 395.52 102.82898481379735" height="102.82898481379735" width="395.52"><g><svg viewBox="0 0 573.1731315653022 149.01600738623873" height="102.82898481379735" width="395.52"><g transform="matrix(1,0,0,1,177.65313156530226,0)"><svg viewBox="0 0 395.52 149.01600738623873" height="149.01600738623873" width="395.52"><g id="textblocktransform"><svg viewBox="0 0 395.52 149.01600738623873" height="149.01600738623873" width="395.52" id="textblock"><g><svg viewBox="0 0 395.52 149.01600738623873" height="149.01600738623873" width="395.52"><g transform="matrix(1,0,0,1,0,0)"><svg width="395.52" viewBox="0.899999999999999 -37.96 222.12000000000003 80.68" height="149.01600738623873" data-palette-color="#e91e63"><svg></svg><svg></svg><g class="wordmark-text-0" data-fill-palette-color="primary" id="text-0"><path d="M36.45-23.12l-5.37 0.24-2.22-0.02c-1.32 0-3.363 0.017-6.13 0.05v0c-0.193-0.54-0.587-0.997-1.18-1.37-0.6-0.373-1.257-0.56-1.97-0.56-0.713 0-1.3 0.16-1.76 0.48-0.453 0.313-0.68 0.757-0.68 1.33 0 0.567 0.217 1.077 0.65 1.53 0.427 0.46 1.03 0.783 1.81 0.97 0.787 0.187 1.567 0.313 2.34 0.38 0.773 0.06 1.677 0.123 2.71 0.19 1.033 0.067 1.813 0.143 2.34 0.23 0.527 0.093 1.197 0.19 2.01 0.29v0c1.453 0.193 2.737 0.457 3.85 0.79 1.113 0.333 2.28 1.03 3.5 2.09v0c0.247 0.113 0.573 0.413 0.98 0.9v0c0.733 1.12 1.197 2.747 1.39 4.88v0c-0.08 2.347-0.933 4.427-2.56 6.24-1.627 1.813-3.687 3.127-6.18 3.94v0c-0.193 0.1-0.437 0.167-0.73 0.2v0l-0.83 0.19c-1.58 0.46-2.947 0.69-4.1 0.69v0c-0.7 0.227-1.823 0.34-3.37 0.34v0l-0.61-0.03h-1.79l-0.26 0.03c-2.527 0-5.23-0.407-8.11-1.22v0 0.02c-6.133-1.513-9.21-4.15-9.23-7.91v0c0.867 0.067 2.063 0.1 3.59 0.1 1.533 0 3.603-0.013 6.21-0.04 2.613-0.02 4.597-0.03 5.95-0.03v0c-0.02 0.093-0.03 0.257-0.03 0.49v0c0 0.713 0.367 1.297 1.1 1.75 0.733 0.46 1.58 0.69 2.54 0.69 0.96 0 1.717-0.187 2.27-0.56 0.553-0.38 0.83-0.867 0.83-1.46 0-0.593-0.153-1.09-0.46-1.49-0.307-0.4-0.763-0.697-1.37-0.89-0.6-0.193-1.157-0.337-1.67-0.43-0.513-0.087-1.177-0.163-1.99-0.23-0.813-0.06-1.417-0.123-1.81-0.19-0.387-0.067-0.963-0.153-1.73-0.26-0.767-0.107-1.437-0.197-2.01-0.27-0.58-0.073-1.257-0.183-2.03-0.33-0.773-0.147-1.457-0.297-2.05-0.45-0.593-0.153-1.233-0.36-1.92-0.62-0.68-0.26-1.273-0.547-1.78-0.86v0c-2.46-1.527-3.69-3.757-3.69-6.69v0c0-2.62 0.743-4.643 2.23-6.07v0c1.853-1.78 4.863-2.937 9.03-3.47v0c0.42-0.067 1.02-0.187 1.8-0.36 0.787-0.167 1.327-0.25 1.62-0.25 0.293 0 0.487 0.017 0.58 0.05v0l3.1-0.17 4.3 0.19c0.16 0.02 0.633 0.053 1.42 0.1v0c1.933 0.147 3.637 0.42 5.11 0.82 1.473 0.4 2.88 1.177 4.22 2.33 1.347 1.153 2.117 2.407 2.31 3.76v0zM53.52-29.96l-0.03 0.03c0.733-0.213 1.513-0.32 2.34-0.32 0.833 0 1.623 0.033 2.37 0.1v0l1.03 0.1c1.613 0.147 2.85 0.333 3.71 0.56v0-0.03l0.51 0.22c3.42 1.06 6.083 2.673 7.99 4.84v0-0.03c0.433 0.52 0.973 1.307 1.62 2.36 0.64 1.047 0.96 1.773 0.96 2.18v0l0.2 0.66 0.12 0.71c0.307 1.093 0.46 2.007 0.46 2.74 0 0.727 0.01 1.287 0.03 1.68v0h-20.12v0.81c0.1 0.373 0.15 0.763 0.15 1.17 0 0.407 0.003 0.727 0.01 0.96 0.007 0.24 0.027 0.47 0.06 0.69 0.033 0.213 0.053 0.39 0.06 0.53 0.007 0.14 0.043 0.303 0.11 0.49 0.067 0.187 0.103 0.313 0.11 0.38 0.007 0.067 0.057 0.197 0.15 0.39 0.087 0.193 0.16 0.377 0.22 0.55 0.053 0.173 0.163 0.34 0.33 0.5v0-0.02l0.27 0.51c0.307 0.34 0.73 0.583 1.27 0.73v0c0.893-0.193 1.5-0.657 1.82-1.39 0.313-0.733 0.577-1.647 0.79-2.74v0c0.587-0.16 1.417-0.24 2.49-0.24v0l3.12 0.07h9.01c-0.193 1.987-0.78 3.81-1.76 5.47v0h0.03c-0.847 1.333-2.167 2.48-3.96 3.44v0c-5.06 1.78-8.307 2.67-9.74 2.67v0c-0.26 0-0.47-0.017-0.63-0.05v0h-0.56l-0.22 0.02h-0.22c-0.133 0-0.297-0.017-0.49-0.05v0c-0.167 0.1-0.363 0.15-0.59 0.15v0l-2.12-0.25c-0.113 0.053-0.347 0.08-0.7 0.08-0.347 0-1.26-0.22-2.74-0.66v0 0.02l-0.59-0.17-0.59-0.19c-2.44-0.72-4.53-1.977-6.27-3.77-1.74-1.8-2.853-3.897-3.34-6.29v0c-0.053-0.293-0.143-0.737-0.27-1.33-0.133-0.593-0.2-0.997-0.2-1.21v0-1.17c0-0.28 0.01-0.493 0.03-0.64v0-0.36c0-3.453 1.023-6.437 3.07-8.95 2.053-2.513 4.803-4.283 8.25-5.31v0l0.59-0.17c0.86-0.147 1.48-0.303 1.86-0.47zM57.62-17.38h3.17l0.51-0.32c-0.273-1.76-0.533-2.887-0.78-3.38-0.24-0.5-0.477-0.927-0.71-1.28v0c-0.42-0.687-0.977-1.03-1.67-1.03-0.693 0-1.283 0.343-1.77 1.03v0c-0.86 1.2-1.403 2.89-1.63 5.07v0c1.04-0.06 2-0.09 2.88-0.09zM95.19 0.76v0l-1.95 0.12c-0.993 0-1.97-0.113-2.93-0.34v0c-0.653 0-1.533-0.173-2.64-0.52v0c-3.713-0.873-6.48-2.393-8.3-4.56v0l-0.44-0.51c-1.413-1.827-2.333-4.277-2.76-7.35v0l-0.07-0.52c-0.067-0.52-0.1-1.14-0.1-1.86 0-0.727 0.14-1.707 0.42-2.94v0c1.02-4.573 3.177-7.733 6.47-9.48v0l3.29-1.76c2.44-0.873 5.483-1.31 9.13-1.31v0c1.387 0 2.667 0.177 3.84 0.53v0l0.48 0.15c-0.013 0-0.02-0.007-0.02-0.02v0h0.05c5.513 1.46 9.183 3.883 11.01 7.27v0l0.05 0.17c0.813 1.647 1.357 3.487 1.63 5.52v0l-0.56-0.2h-15.28l-0.12-0.9c-0.26-1.873-0.7-3.117-1.32-3.73v0l-0.49-0.3c-1.433 0.1-2.24 2.053-2.42 5.86v0c-0.013 0.52-0.037 0.83-0.07 0.93v0l0.02 0.78 0.08 1.42c0 0.113 0.007 0.233 0.02 0.36v0l0.25 0.25h-0.27c0.08 1.22 0.337 2.153 0.77 2.8 0.427 0.653 0.86 0.98 1.3 0.98v0c0.833 0 1.403-0.503 1.71-1.51 0.313-1.013 0.47-1.933 0.47-2.76v0c1.253-0.067 3.14-0.1 5.66-0.1v0h0.93l2.34 0.03h2.34l4.72 0.02c-0.507 5.227-2.973 8.92-7.4 11.08v0c-0.327 0.12-0.773 0.31-1.34 0.57v0l-0.93 0.44c-2.587 0.987-4.957 1.48-7.11 1.48v0c-0.227 0-0.38-0.03-0.46-0.09zM150.05-14.77v0c-0.033 0.16-0.05 0.257-0.05 0.29v0 0.2c-0.047 2.687-0.667 5.103-1.86 7.25v0h0.03c-1.66 2.54-3.977 4.493-6.95 5.86-2.967 1.367-5.89 2.05-8.77 2.05-2.88 0-5.27-0.28-7.17-0.84-1.893-0.567-3.647-1.387-5.26-2.46-1.613-1.073-2.81-2.107-3.59-3.1v0c-1.853-2.34-2.78-5.65-2.78-9.93v0c0-0.147 0.023-0.27 0.07-0.37v0-0.39c-0.047-0.067-0.07-0.133-0.07-0.2v0l0.05-0.26h-0.03c0.313-2.853 0.917-4.727 1.81-5.62v0c0-0.18 0.113-0.383 0.34-0.61v0 0.02l0.37-0.58c1.92-2.46 4.117-4.147 6.59-5.06v0l0.85-0.31c1.073-0.52 2.58-0.91 4.52-1.17v0l0.78-0.08c0.113-0.013 0.347-0.03 0.7-0.05 0.347-0.013 0.593-0.043 0.74-0.09v0l1.05 0.02c0.047-0.013 0.103-0.02 0.17-0.02 0.067 0 0.14 0.007 0.22 0.02v0l-0.02-0.02c0.093 0.047 0.24 0.07 0.44 0.07v0c0.06-0.067 0.173-0.1 0.34-0.1v0c3.533 0 6.537 0.723 9.01 2.17v0l0.49 0.22c5.32 2.56 7.98 6.923 7.98 13.09zM134.86-14.62v0c-0.06-3.24-0.523-5.43-1.39-6.57v0c-0.36-0.473-0.793-0.71-1.3-0.71-0.513 0-0.967 0.297-1.36 0.89-0.393 0.593-0.707 1.527-0.94 2.8-0.233 1.267-0.35 2.393-0.35 3.38 0 0.987 0.043 1.833 0.13 2.54 0.093 0.707 0.227 1.453 0.4 2.24 0.18 0.793 0.457 1.453 0.83 1.98 0.38 0.527 0.803 0.79 1.27 0.79v0c1.807 0 2.71-2.447 2.71-7.34zM152.64-29.22l6.49 0.02 6.54-0.02c0.087 0.34 0.233 0.877 0.44 1.61 0.213 0.733 0.417 1.463 0.61 2.19v0l0.47 1.84c0.647-1.647 1.043-2.56 1.19-2.74v0l0.39-0.49c1.647-2.307 4.17-3.46 7.57-3.46v0c1.613 0 3.147 0.483 4.6 1.45 1.46 0.967 2.597 2.227 3.41 3.78 0.813 1.553 1.22 3.193 1.22 4.92v0c0 0.2-0.023 0.357-0.07 0.47v0 15.01l0.02 4.66h-14.28l-0.05-12.2 0.1-2.49c0-2.493-0.66-3.74-1.98-3.74v0c-1.413 0-2.12 1.18-2.12 3.54v0c0 0.52 0.007 0.88 0.02 1.08v0 0.36l0.03 0.42v13.01l-7.28 0.02h-7.3l-0.02-14.64zM208.33-28.86v-0.14l0.07-2.47v-6.47h7.27l7.33-0.02c0 0 0.007 12.703 0.02 38.11v0h-12.45c-0.34-0.553-0.593-1.067-0.76-1.54v0l-0.97-1.71c-1.567 1.38-3.037 2.39-4.41 3.03-1.373 0.633-3.06 0.95-5.06 0.95v0c-3.24 0-5.967-1.287-8.18-3.86-2.213-2.573-3.32-5.87-3.32-9.89v0c0-2.653 0.3-5.16 0.9-7.52v0c0.653-2.273 1.703-4.4 3.15-6.38 1.447-1.98 3.333-3.1 5.66-3.36v0l0.37 0.03 2.07-0.15c1.987 0 4.243 0.87 6.77 2.61v0l0.51 0.32-0.02-0.02c0.373 0.24 0.607 0.417 0.7 0.53v0l0.76-0.34c-0.273-0.827-0.41-1.397-0.41-1.71zM203.1-13.99v0l-0.02 0.86v0.68c0 0.893 0.17 1.813 0.51 2.76v0l-0.03-0.03c0.12 0.493 0.447 1.117 0.98 1.87 0.54 0.76 1.087 1.14 1.64 1.14v0c0.207 0 0.377-0.043 0.51-0.13v0c1.693-0.727 2.54-3.003 2.54-6.83v0c0-2.653-0.44-4.77-1.32-6.35v0c-0.54-0.973-1.13-1.46-1.77-1.46-0.64 0-1.207 0.487-1.7 1.46v0c-0.893 1.773-1.34 3.783-1.34 6.03z" fill="#e91e63" fill-rule="nonzero" stroke="none" stroke-width="1" stroke-linecap="butt" stroke-linejoin="miter" stroke-miterlimit="10" stroke-dasharray="" stroke-dashoffset="0" font-family="none" font-weight="none" font-size="none" text-anchor="none" style="mix-blend-mode: normal" data-fill-palette-color="primary" opacity="1"></path><path transform="translate(0,41.84)" d="M36.45-23.12l-5.37 0.24-2.22-0.02c-1.32 0-3.363 0.017-6.13 0.05v0c-0.193-0.54-0.587-0.997-1.18-1.37-0.6-0.373-1.257-0.56-1.97-0.56-0.713 0-1.3 0.16-1.76 0.48-0.453 0.313-0.68 0.757-0.68 1.33 0 0.567 0.217 1.077 0.65 1.53 0.427 0.46 1.03 0.783 1.81 0.97 0.787 0.187 1.567 0.313 2.34 0.38 0.773 0.06 1.677 0.123 2.71 0.19 1.033 0.067 1.813 0.143 2.34 0.23 0.527 0.093 1.197 0.19 2.01 0.29v0c1.453 0.193 2.737 0.457 3.85 0.79 1.113 0.333 2.28 1.03 3.5 2.09v0c0.247 0.113 0.573 0.413 0.98 0.9v0c0.733 1.12 1.197 2.747 1.39 4.88v0c-0.08 2.347-0.933 4.427-2.56 6.24-1.627 1.813-3.687 3.127-6.18 3.94v0c-0.193 0.1-0.437 0.167-0.73 0.2v0l-0.83 0.19c-1.58 0.46-2.947 0.69-4.1 0.69v0c-0.7 0.227-1.823 0.34-3.37 0.34v0l-0.61-0.03h-1.79l-0.26 0.03c-2.527 0-5.23-0.407-8.11-1.22v0 0.02c-6.133-1.513-9.21-4.15-9.23-7.91v0c0.867 0.067 2.063 0.1 3.59 0.1 1.533 0 3.603-0.013 6.21-0.04 2.613-0.02 4.597-0.03 5.95-0.03v0c-0.02 0.093-0.03 0.257-0.03 0.49v0c0 0.713 0.367 1.297 1.1 1.75 0.733 0.46 1.58 0.69 2.54 0.69 0.96 0 1.717-0.187 2.27-0.56 0.553-0.38 0.83-0.867 0.83-1.46 0-0.593-0.153-1.09-0.46-1.49-0.307-0.4-0.763-0.697-1.37-0.89-0.6-0.193-1.157-0.337-1.67-0.43-0.513-0.087-1.177-0.163-1.99-0.23-0.813-0.06-1.417-0.123-1.81-0.19-0.387-0.067-0.963-0.153-1.73-0.26-0.767-0.107-1.437-0.197-2.01-0.27-0.58-0.073-1.257-0.183-2.03-0.33-0.773-0.147-1.457-0.297-2.05-0.45-0.593-0.153-1.233-0.36-1.92-0.62-0.68-0.26-1.273-0.547-1.78-0.86v0c-2.46-1.527-3.69-3.757-3.69-6.69v0c0-2.62 0.743-4.643 2.23-6.07v0c1.853-1.78 4.863-2.937 9.03-3.47v0c0.42-0.067 1.02-0.187 1.8-0.36 0.787-0.167 1.327-0.25 1.62-0.25 0.293 0 0.487 0.017 0.58 0.05v0l3.1-0.17 4.3 0.19c0.16 0.02 0.633 0.053 1.42 0.1v0c1.933 0.147 3.637 0.42 5.11 0.82 1.473 0.4 2.88 1.177 4.22 2.33 1.347 1.153 2.117 2.407 2.31 3.76v0zM59.25-22.02v9.86l-0.02 0.37c0 0.567 0.02 0.987 0.06 1.26 0.04 0.267 0.207 0.583 0.5 0.95 0.293 0.367 1.247 0.55 2.86 0.55v0l0.66 0.02c0.24 0 0.457-0.023 0.65-0.07v0l0.03 9.1h-13.36l-0.83 0.05h-0.26c-0.607 0-1.267-0.193-1.98-0.58-0.72-0.393-1.253-0.74-1.6-1.04-0.353-0.3-0.65-0.687-0.89-1.16v0c-0.46-0.88-0.733-1.747-0.82-2.6-0.087-0.853-0.13-1.917-0.13-3.19v0-13.52h-2.88l-0.03-3.42v-3.49h2.81v-8.08h7.54l7.55-0.03 0.02 8.06h4.08l0.02 3.49v3.47zM102.37-14.77v0c-0.033 0.16-0.05 0.257-0.05 0.29v0 0.2c-0.047 2.687-0.667 5.103-1.86 7.25v0h0.03c-1.66 2.54-3.977 4.493-6.95 5.86-2.967 1.367-5.89 2.05-8.77 2.05-2.887 0-5.277-0.28-7.17-0.84-1.893-0.567-3.647-1.387-5.26-2.46-1.613-1.073-2.81-2.107-3.59-3.1v0c-1.853-2.34-2.78-5.65-2.78-9.93v0c0-0.147 0.023-0.27 0.07-0.37v0-0.39c-0.047-0.067-0.07-0.133-0.07-0.2v0l0.05-0.26h-0.03c0.313-2.853 0.917-4.727 1.81-5.62v0c0-0.18 0.113-0.383 0.34-0.61v0 0.02l0.37-0.58c1.92-2.46 4.117-4.147 6.59-5.06v0l0.85-0.31c1.073-0.52 2.58-0.91 4.52-1.17v0l0.78-0.08c0.113-0.013 0.347-0.03 0.7-0.05 0.347-0.013 0.593-0.043 0.74-0.09v0l1.05 0.02c0.047-0.013 0.103-0.02 0.17-0.02 0.067 0 0.14 0.007 0.22 0.02v0l-0.02-0.02c0.093 0.047 0.24 0.07 0.44 0.07v0c0.06-0.067 0.173-0.1 0.34-0.1v0c3.533 0 6.537 0.723 9.01 2.17v0l0.48 0.22c5.327 2.56 7.99 6.923 7.99 13.09zM87.18-14.62v0c-0.067-3.24-0.53-5.43-1.39-6.57v0c-0.36-0.473-0.797-0.71-1.31-0.71-0.507 0-0.957 0.297-1.35 0.89-0.393 0.593-0.707 1.527-0.94 2.8-0.233 1.267-0.35 2.393-0.35 3.38 0 0.987 0.043 1.833 0.13 2.54 0.087 0.707 0.22 1.453 0.4 2.24 0.18 0.793 0.457 1.453 0.83 1.98 0.373 0.527 0.797 0.79 1.27 0.79v0c1.807 0 2.71-2.447 2.71-7.34zM104.81-14.55v-14.67l6.49-0.03h6.5l0.53 3.27c0.38 2.3 0.6 3.603 0.66 3.91v0h0.86c0.6-2.787 1.757-4.763 3.47-5.93v0l0.97-0.56c0.053-0.1 0.347-0.28 0.88-0.54v0l-0.1 0.02 0.56-0.22c1.6-0.633 2.977-0.957 4.13-0.97v0c0.247 0 0.41 0.017 0.49 0.05v0h0.9v13.62c-0.34-0.08-0.877-0.12-1.61-0.12-0.733 0-1.487 0.103-2.26 0.31-0.773 0.213-1.423 0.487-1.95 0.82-0.527 0.333-0.987 0.76-1.38 1.28v0c-1.207 1.613-1.81 4.03-1.81 7.25v0l0.05 2.57v4.49l-8.69 0.02h-8.67zM146.22-29.96l-0.03 0.03c0.733-0.213 1.517-0.32 2.35-0.32 0.827 0 1.613 0.033 2.36 0.1v0l1.03 0.1c1.613 0.147 2.85 0.333 3.71 0.56v0-0.03l0.51 0.22c3.42 1.06 6.083 2.673 7.99 4.84v0-0.03c0.433 0.52 0.973 1.307 1.62 2.36 0.64 1.047 0.96 1.773 0.96 2.18v0l0.2 0.66 0.12 0.71c0.307 1.093 0.46 2.007 0.46 2.74 0 0.727 0.01 1.287 0.03 1.68v0h-20.12v0.81c0.1 0.373 0.15 0.763 0.15 1.17 0 0.407 0.003 0.727 0.01 0.96 0.007 0.24 0.027 0.47 0.06 0.69 0.033 0.213 0.053 0.39 0.06 0.53 0.013 0.14 0.05 0.303 0.11 0.49 0.067 0.187 0.103 0.313 0.11 0.38 0.007 0.067 0.057 0.197 0.15 0.39 0.087 0.193 0.16 0.377 0.22 0.55 0.053 0.173 0.163 0.34 0.33 0.5v0-0.02l0.27 0.51c0.307 0.34 0.73 0.583 1.27 0.73v0c0.893-0.193 1.5-0.657 1.82-1.39 0.313-0.733 0.577-1.647 0.79-2.74v0c0.587-0.16 1.417-0.24 2.49-0.24v0l3.12 0.07h9.01c-0.193 1.987-0.777 3.81-1.75 5.47v0h0.02c-0.847 1.333-2.167 2.48-3.96 3.44v0c-5.06 1.78-8.307 2.67-9.74 2.67v0c-0.26 0-0.47-0.017-0.63-0.05v0h-0.56l-0.22 0.02h-0.22c-0.133 0-0.297-0.017-0.49-0.05v0c-0.167 0.1-0.363 0.15-0.59 0.15v0l-2.12-0.25c-0.113 0.053-0.347 0.08-0.7 0.08-0.347 0-1.26-0.22-2.74-0.66v0 0.02l-0.59-0.17-0.59-0.19c-2.44-0.72-4.53-1.977-6.27-3.77-1.74-1.8-2.853-3.897-3.34-6.29v0c-0.053-0.293-0.143-0.737-0.27-1.33-0.133-0.593-0.2-0.997-0.2-1.21v0-1.17c0-0.28 0.01-0.493 0.03-0.64v0-0.36c0-3.453 1.023-6.437 3.07-8.95 2.053-2.513 4.803-4.283 8.25-5.31v0l0.59-0.17c0.86-0.147 1.48-0.303 1.86-0.47zM150.32-17.38h3.17l0.51-0.32c-0.273-1.76-0.533-2.887-0.78-3.38-0.24-0.5-0.477-0.927-0.71-1.28v0c-0.42-0.687-0.977-1.03-1.67-1.03-0.693 0-1.283 0.343-1.77 1.03v0c-0.86 1.2-1.403 2.89-1.63 5.07v0c1.04-0.06 2-0.09 2.88-0.09z" fill="#e91e63" fill-rule="nonzero" stroke="none" stroke-width="1" stroke-linecap="butt" stroke-linejoin="miter" stroke-miterlimit="10" stroke-dasharray="" stroke-dashoffset="0" font-family="none" font-weight="none" font-size="none" text-anchor="none" style="mix-blend-mode: normal" data-fill-palette-color="primary" opacity="1"></path></g></svg></g></svg></g></svg></g></svg></g><g transform="matrix(1,0,0,1,0,9.978124653119352)"><svg viewBox="0 0 161.3246976 129.05975808000002" height="129.05975808000002" width="161.3246976"><g><svg xmlns="http://www.w3.org/2000/svg" xmlns:xlink="http://www.w3.org/1999/xlink" version="1.1" x="0" y="0" viewBox="2 8 59.99999999999999 48" style="enable-background:new 0 0 64 64;" xml:space="preserve" height="129.05975808000002" width="161.3246976" class="icon-icon-0" data-fill-palette-color="accent" id="icon-0"><g fill="#e91e63" data-fill-palette-color="accent"><path d="M3 56h9c0.6 0 1-0.4 1-1v-4h9c0.3 0 0.6-0.2 0.8-0.4l7-10c0.3-0.4 0.2-1-0.2-1.4l-4-3c-0.4-0.3-1.1-0.2-1.4 0.2 0 0 0 0 0 0L19.5 43H13l1.6-1.2c0.4-0.3 0.5-1 0.2-1.4h0l-3-4c-0.2-0.2-0.4-0.4-0.7-0.4-0.3 0-0.6 0.1-0.8 0.2l-8 7C2.1 43.4 2 43.7 2 44v11C2 55.6 2.4 56 3 56zM4 44.5l6.8-6 1.8 2.3-3.2 2.4c-0.4 0.3-0.5 1-0.2 1.4C9.4 44.9 9.7 45 10 45h10c0.3 0 0.6-0.2 0.8-0.4l4.4-6.2 2.4 1.8L21.5 49H12c-0.6 0-1 0.4-1 1v4H4V44.5z" fill="#e91e63" data-fill-palette-color="accent"></path><path d="M61.7 43.2l-8-7c-0.4-0.4-1-0.3-1.4 0.1 0 0 0 0 0 0.1l-3 4c-0.3 0.4-0.2 1.1 0.2 1.4l0 0L51 43h-6.5l-4.7-6.6c-0.3-0.4-0.9-0.6-1.4-0.2 0 0 0 0 0 0l-4 3c-0.4 0.3-0.5 0.9-0.2 1.4l7 10c0.2 0.3 0.5 0.4 0.8 0.4h9v4c0 0.6 0.4 1 1 1h9c0.6 0 1-0.4 1-1V44C62 43.7 61.9 43.4 61.7 43.2zM60 54h-7v-4c0-0.6-0.4-1-1-1h-9.5l-6.1-8.8 2.4-1.8 4.4 6.2c0.2 0.3 0.5 0.4 0.8 0.4h10c0.6 0 1-0.4 1-1 0-0.3-0.1-0.6-0.4-0.8l-3.2-2.4 1.8-2.3 6.8 6V54z" fill="#e91e63" data-fill-palette-color="accent"></path><path d="M5 34h24c0.6 0 1-0.4 1-1V15c0-0.6-0.4-1-1-1h-5.2c-0.7-2.4-2.7-6-6.8-6s-6.1 3.6-6.8 6H5c-0.6 0-1 0.4-1 1v18C4 33.6 4.4 34 5 34zM6 32v-2h22v2H6zM6 20h22v8H6V20zM17 10c2.9 0 4.2 2.5 4.7 4h-9.4C12.8 12.5 14.1 10 17 10zM28 16v2H6v-2H28z" fill="#e91e63" data-fill-palette-color="accent"></path><path d="M47 13c-6.1 0-11 4.9-11 11s4.9 11 11 11 11-4.9 11-11C58 17.9 53.1 13 47 13zM47 33c-5 0-9-4-9-9s4-9 9-9 9 4 9 9C56 29 52 33 47 33z" fill="#e91e63" data-fill-palette-color="accent"></path><polygon points="48,17 46,17 46,19 44,19 44,25 48,25 48,27 44,27 44,29 46,29 46,31 48,31 48,29 50,29 50,23 46,23 46,21 50,21    50,19 48,19  " fill="#e91e63" data-fill-palette-color="accent"></polygon></g></svg></g></svg></g></svg></g><defs></defs></svg><rect width="395.52" height="102.82898481379735" fill="none" stroke="none" visibility="hidden"></rect></g></svg></g></svg>